# xmcd CD database file
#
# Track frame offsets:
#	150
#	12803
#	34547
#	45917
#	72039
#	90317
#	109183
#	123646
#	146663
#	161622
#	178027
#	192020
#	206442
#	222236
#	245700
#	261306
#	279025
#	290091
#	303871
#	324670
#
# Disc length: 4556 seconds
#
# Revision: 0
# Processed by: cddbd v1.5.1PL0 Copyright (c) Steve Scherf et al.
# Submitted via: CDex 1.51
#
DISCID=1a11ca14
DTITLE=Assorted - Hard Rock Blues
DYEAR=2004
DGENRE=Blues
TTITLE0=06 - Looking For A Fox
TTITLE1=Gary Moore - Enough of the blues
TTITLE2=01 - Dick Dale and His Del-Tones - Misirlou
TTITLE3=10 - Maybe I'm Wrong
TTITLE4=18 - New Orleans
TTITLE5=04 - Somebody's Watching
TTITLE6=11 - Riders In The Sky
TTITLE7=03 - A Hard Road
TTITLE8=05 - The Hollies - Long Cool Woman (In A Black Dress)
TTITLE9=02 - The Blues Don't Bother Me
TTITLE10=02 - You Need To Be With Me
TTITLE11=06 - Stillwater - Fever Dog
TTITLE12=09 - Soul Man
TTITLE13=09 - Leon Russell - A Hard Rain's A-Gonna Fall
TTITLE14=02 - Ooh Baby
TTITLE15=17 - Thunderclap Newman - Something In The Air
TTITLE16=13 - The Statler Brothers - Flowers on the Wall
TTITLE17=13 - Pinball wizard
TTITLE18=02 - Up On Cripple Creek
TTITLE19=01 - Bright Side of the Road
EXTD=YEAR: 2004
EXTT0=
EXTT1=
EXTT2=
EXTT3=
EXTT4=
EXTT5=
EXTT6=
EXTT7=
EXTT8=
EXTT9=
EXTT10=
EXTT11=
EXTT12=
EXTT13=
EXTT14=
EXTT15=
EXTT16=
EXTT17=
EXTT18=
EXTT19=
PLAYORDER=
